<?xml version="1.0" encoding="utf-8"?>
<svg xmlns="http://www.w3.org/2000/svg" width="512" height="512" viewBox="80 50 620 1650">
  <rect x='80' y='50' width='620' height='1650' fill='#0D1B3D' rx='0'/>
  <g fill="#ffffff">
    <path d="M693.23 1478.39 c8.33 -4.17 18.49 -11.72 22.92 -16.93 15.89 -19.27 15.63 -15.36 15.63 -209.64 0 -128.39 0.78 -179.69 3.13 -187.24 3.91 -13.28 21.88 -29.17 37.24 -33.07 7.81 -1.82 62.50 -2.86 172.66 -2.86 174.74 0 173.18 0 192.19 -14.32 4.69 -3.65 11.72 -13.28 15.89 -21.35 l7.29 -15.10 0 -140.89 0 -140.63 -7.81 -15.63 c-8.59 -16.67 -24.74 -29.95 -42.45 -34.90 -5.99 -1.56 -67.97 -2.60 -167.19 -2.60 l-157.55 0 -13.54 -6.25 c-10.16 -4.95 -15.10 -9.11 -20.83 -19.01 l-7.29 -12.50 -1.30 -138.02 c-1.30 -125.52 -1.82 -139.06 -5.99 -148.44 -6.51 -14.32 -19.01 -26.82 -34.38 -34.11 l-13.02 -6.25 -141.93 0 -141.93 0 -13.02 6.25 c-18.75 8.59 -33.85 26.04 -37.76 43.49 -2.08 10.16 -2.86 50.78 -2.08 141.67 0.78 125.52 0.78 127.86 6.51 138.28 3.13 5.73 10.16 14.58 15.36 19.27 20.05 17.45 13.02 16.67 178.13 18.23 145.05 1.30 150 1.56 158.85 6.51 4.95 3.13 12.50 10.42 16.93 16.67 l7.81 11.20 0.78 147.40 c0.52 105.73 0 150.52 -2.08 158.07 -4.17 14.32 -13.80 26.30 -26.82 33.33 l-10.94 5.73 -276.04 1.30 -276.04 1.30 -12.24 7.03 c-6.51 4.17 -15.63 11.72 -20.05 16.93 -16.41 19.79 -16.15 15.89 -15.36 209.38 0.78 165.36 1.04 176.04 5.73 184.64 11.46 21.88 31.77 35.94 56.25 39.06 7.81 1.04 128.13 1.82 266.93 1.56 l252.60 -0.26 14.84 -7.29z"/>
  </g>
</svg>